<svg width="11" height="11" viewBox="0 0 11 11" fill="none" xmlns="http://www.w3.org/2000/svg">
<path d="M10.7728 4.94336H2.20205L7.33193 0.490234C7.41396 0.418457 7.36416 0.285156 7.25576 0.285156H5.95937C5.90224 0.285156 5.84804 0.305664 5.80556 0.342285L0.269917 5.14551C0.219217 5.18946 0.178555 5.24379 0.150688 5.30482C0.122821 5.36586 0.108398 5.43217 0.108398 5.49927C0.108398 5.56636 0.122821 5.63268 0.150688 5.69371C0.178555 5.75475 0.219217 5.80908 0.269917 5.85303L5.83779 10.6855C5.85976 10.7046 5.88613 10.7148 5.91396 10.7148H7.25429C7.36269 10.7148 7.41249 10.5801 7.33046 10.5098L2.20205 6.05664H10.7728C10.8373 6.05664 10.89 6.00391 10.89 5.93945V5.06055C10.89 4.99609 10.8373 4.94336 10.7728 4.94336Z" fill="#2F3136"/>
</svg>
